<?xml version="1.0" encoding="UTF-8" standalone="no"?>
<!-- Created with Inkscape (http://www.inkscape.org/) -->

<svg
   xmlns:osb="http://www.openswatchbook.org/uri/2009/osb"
   xmlns:dc="http://purl.org/dc/elements/1.1/"
   xmlns:cc="http://creativecommons.org/ns#"
   xmlns:rdf="http://www.w3.org/1999/02/22-rdf-syntax-ns#"
   xmlns:svg="http://www.w3.org/2000/svg"
   xmlns="http://www.w3.org/2000/svg"
   xmlns:xlink="http://www.w3.org/1999/xlink"
   xmlns:sodipodi="http://sodipodi.sourceforge.net/DTD/sodipodi-0.dtd"
   xmlns:inkscape="http://www.inkscape.org/namespaces/inkscape"
   width="744.09448819"
   height="1052.3622047"
   id="svg2"
   version="1.1"
   inkscape:version="0.48+devel r10221"
   sodipodi:docname="pedlbrd-icon.svg"
   inkscape:export-filename="/Users/edu/dev/pedlbrd/images/pedlbrd-icon16.png"
   inkscape:export-xdpi="6.4899998"
   inkscape:export-ydpi="6.4899998">
  <defs
     id="defs4">
    <linearGradient
       id="linearGradient2335">
      <stop
         style="stop-color:#00a1ff;stop-opacity:1;"
         offset="0"
         id="stop2337" />
      <stop
         style="stop-color:#00cfff;stop-opacity:1;"
         offset="1"
         id="stop2339" />
    </linearGradient>
    <linearGradient
       inkscape:collect="always"
       id="linearGradient2315"
       osb:paint="gradient">
      <stop
         style="stop-color:#0093b0;stop-opacity:1;"
         offset="0"
         id="stop2317" />
      <stop
         style="stop-color:#0093b0;stop-opacity:0;"
         offset="1"
         id="stop2319" />
    </linearGradient>
    <linearGradient
       id="linearGradient863">
      <stop
         id="stop871"
         offset="0"
         style="stop-color:#00adff;stop-opacity:0.49803922;" />
      <stop
         style="stop-color:#6fe2ff;stop-opacity:0.45882353;"
         offset="1"
         id="stop867" />
    </linearGradient>
    <linearGradient
       id="linearGradient855">
      <stop
         style="stop-color:#2faee2;stop-opacity:1;"
         offset="0"
         id="stop857" />
      <stop
         style="stop-color:#000000;stop-opacity:0;"
         offset="1"
         id="stop859" />
    </linearGradient>
    <linearGradient
       inkscape:collect="always"
       xlink:href="#linearGradient2335"
       id="linearGradient2341"
       x1="252.01666"
       y1="335.57324"
       x2="244.25429"
       y2="129.8593"
       gradientUnits="userSpaceOnUse" />
  </defs>
  <sodipodi:namedview
     id="base"
     pagecolor="#ffffff"
     bordercolor="#666666"
     borderopacity="1.0"
     inkscape:pageopacity="0.0"
     inkscape:pageshadow="2"
     inkscape:zoom="0.80957127"
     inkscape:cx="102.27636"
     inkscape:cy="803.26199"
     inkscape:document-units="px"
     inkscape:current-layer="layer1"
     showgrid="false"
     inkscape:window-width="1916"
     inkscape:window-height="1036"
     inkscape:window-x="0"
     inkscape:window-y="0"
     inkscape:window-maximized="1" />
  <metadata
     id="metadata7">
    <rdf:RDF>
      <cc:Work
         rdf:about="">
        <dc:format>image/svg+xml</dc:format>
        <dc:type
           rdf:resource="http://purl.org/dc/dcmitype/StillImage" />
        <dc:title></dc:title>
      </cc:Work>
    </rdf:RDF>
  </metadata>
  <g
     inkscape:label="Layer 1"
     inkscape:groupmode="layer"
     id="layer1">
    <rect
       style="fill:url(#linearGradient2341);fill-opacity:1;fill-rule:evenodd;stroke:none;stroke-width:6.87500000000000000;stroke-linejoin:miter;stroke-miterlimit:4;stroke-opacity:1;stroke-dasharray:none;stroke-dashoffset:0"
       id="rect85"
       width="221.72469"
       height="221.72469"
       x="137.50531"
       y="120.22866"
       ry="28.426241" />
    <g
       id="layer1-7"
       transform="matrix(1.2903402,0,0,1.2903402,-225.68525,-474.25039)"
       style="fill:#ffffff;fill-opacity:1">
      <path
         style="fill:#ffffff;fill-opacity:1"
         id="path2830"
         d="m 360.02183,613.24129 c -4.80756,-2.09404 -8.45042,-7.09834 -8.45042,-11.60858 0,-3.17322 1.08166,-5.29721 6.06689,-11.91309 6.90955,-9.16968 8.20426,-12.50583 6.81124,-17.55094 -1.36929,-4.95915 -5.76657,-7.1704 -11.08832,-5.57596 -5.36573,1.60761 -7.51783,5.51293 -8.36033,15.17113 -0.82294,9.43404 -2.93812,13.30457 -8.70014,15.92022 -5.29272,2.40261 -8.13825,2.41541 -13.3248,0.0599 -7.70698,-3.50009 -11.4954,-14.01305 -7.60215,-21.09608 2.69736,-4.90735 6.92273,-7.02897 16.9475,-8.50958 7.66077,-1.13146 8.99954,-1.64557 11.462,-4.40153 3.30093,-3.69439 3.49275,-5.92336 0.80393,-9.34165 -4.13311,-5.25439 -9.10202,-4.31744 -21.29863,4.01613 -8.42389,5.75579 -12.49838,6.16638 -18.18093,1.83208 -4.74799,-3.62146 -6.88587,-8.60517 -6.30128,-14.68914 0.59057,-6.14615 3.72206,-10.34259 9.31057,-12.47686 5.58178,-2.1317 9.90705,-1.10265 17.11433,4.07176 10.85479,7.79312 15.08815,8.82301 19.59012,4.76589 1.92125,-1.7314 2.34509,-7.28665 0.77917,-10.21259 -1.37363,-2.56665 -8.21537,-5.05451 -13.90018,-5.05451 -12.53146,0 -20.87567,-8.01451 -18.24891,-17.52786 2.16461,-7.83957 9.09266,-13.47214 16.57071,-13.47214 8.14239,0 11.36247,4.0133 14.16744,17.65738 1.93928,9.43318 3.66626,13.05949 6.92692,14.54515 3.37217,1.53646 9.95757,-0.51395 12.08659,-3.76325 2.01255,-3.07154 1.28245,-8.80555 -1.5809,-12.41583 -6.18378,-7.7969 -10.05056,-14.4887 -10.0471,-17.3874 0.008,-6.3502 6.30465,-12.83825 13.84272,-14.26253 5.06907,-0.95777 10.48105,1.13971 14.54372,5.6366 3.20659,3.54932 3.60982,4.59827 3.60982,9.39053 0,5.01986 -0.38192,5.88299 -5.49416,12.41665 -8.49018,10.85082 -9.15248,14.77791 -3.31997,19.68565 3.17,2.66738 6.69197,3.16798 9.96489,1.41637 2.9281,-1.56707 5.7985,-8.64307 5.84924,-14.41932 0.0948,-10.78547 6.03782,-17.49252 15.5,-17.49252 11.96136,0 19.1451,11.56043 13.67601,22.00812 -2.41741,4.61802 -8.97878,7.97733 -15.6379,8.00636 -10.92687,0.0476 -17.63379,6.36014 -14.26449,13.42565 0.96914,2.03229 2.73551,3.70853 4.58875,4.35457 3.57593,1.24657 7.28069,-0.49246 17.15397,-8.05218 5.3492,-4.09575 6.84277,-4.74948 10.84367,-4.74626 6.17309,0.005 10.32507,2.68141 13.1217,8.45849 1.75392,3.6231 2.10769,5.58834 1.59273,8.84771 -1.28583,8.13838 -7.74433,14.71493 -14.64344,14.91109 -2.68995,0.0765 -5.48258,-1.52832 -17.42002,-10.01046 -1.77213,-1.25918 -4.84119,-2.55217 -6.82013,-2.87331 -3.08273,-0.50026 -4.03439,-0.14757 -6.64446,2.4625 -6.00971,6.00972 -2.73047,12.14613 7.55677,14.14093 12.98922,2.51874 15.77424,3.42471 18.77787,6.10846 2.88705,2.57957 3.11897,3.27077 3.11897,9.29549 0,7.79557 -1.89456,10.99822 -8.55854,14.46777 -5.23295,2.72448 -10.30789,2.48698 -14.77135,-0.69128 -3.9179,-2.78979 -6.29168,-8.11887 -7.16655,-16.08874 -0.93997,-8.56288 -3.03875,-12.55887 -7.34213,-13.97911 -4.1677,-1.37547 -7.5848,-0.23746 -10.53011,3.5069 -3.49714,4.4459 -2.75142,8.03884 3.41212,16.43982 5.85095,7.97493 7.96269,13.4191 6.96576,17.9581 -1.6629,7.57113 -14.48119,12.37147 -23.05878,8.6353 z m 14.9838,-57.66979 c 4.36463,-3.83219 5.41243,-8.33718 3.08156,-13.24911 -4.94244,-10.41542 -21.51578,-7.09215 -21.51578,4.31432 0,5.19288 1.2683,7.59422 5.31382,10.06095 4.71991,2.87793 8.97607,2.51262 13.1204,-1.12616 z"
         inkscape:connector-curvature="0" />
    </g>
  </g>
</svg>
